<mxfile host="app.diagrams.net" modified="2023-08-29T00:05:19.210Z" agent="Mozilla/5.0 (Windows NT 10.0; Win64; x64) AppleWebKit/537.36 (KHTML, like Gecko) Chrome/116.0.0.0 Safari/537.36" etag="nVNMwmn7N-_7Hkcnb0t2" version="21.6.9" type="github">
  <diagram name="Página-1" id="iCkgcVV_24aynwTFFvUh">
    <mxGraphModel dx="1934" dy="826" grid="1" gridSize="10" guides="1" tooltips="1" connect="1" arrows="1" fold="1" page="1" pageScale="1" pageWidth="827" pageHeight="1169" math="0" shadow="0">
      <root>
        <mxCell id="0" />
        <mxCell id="1" parent="0" />
        <mxCell id="KjsGoKqbYrHmFHCyqF9O-1" style="edgeStyle=orthogonalEdgeStyle;rounded=0;orthogonalLoop=1;jettySize=auto;html=1;entryX=0;entryY=0.5;entryDx=0;entryDy=0;entryPerimeter=0;flowAnimation=1;" parent="1" source="KjsGoKqbYrHmFHCyqF9O-2" target="KjsGoKqbYrHmFHCyqF9O-40" edge="1">
          <mxGeometry relative="1" as="geometry" />
        </mxCell>
        <mxCell id="KjsGoKqbYrHmFHCyqF9O-2" value="Users" style="sketch=0;outlineConnect=0;fontColor=#232F3E;gradientColor=none;strokeColor=#232F3E;fillColor=#ffffff;dashed=0;verticalLabelPosition=bottom;verticalAlign=top;align=center;html=1;fontSize=12;fontStyle=0;aspect=fixed;shape=mxgraph.aws4.resourceIcon;resIcon=mxgraph.aws4.users;" parent="1" vertex="1">
          <mxGeometry x="10" y="179" width="60" height="60" as="geometry" />
        </mxCell>
        <mxCell id="KjsGoKqbYrHmFHCyqF9O-3" value="Halley Cloud" style="points=[[0,0],[0.25,0],[0.5,0],[0.75,0],[1,0],[1,0.25],[1,0.5],[1,0.75],[1,1],[0.75,1],[0.5,1],[0.25,1],[0,1],[0,0.75],[0,0.5],[0,0.25]];outlineConnect=0;gradientColor=none;html=1;whiteSpace=wrap;fontSize=12;fontStyle=0;container=1;pointerEvents=0;collapsible=0;recursiveResize=0;shape=mxgraph.aws4.group;grIcon=mxgraph.aws4.group_aws_cloud_alt;strokeColor=#232F3E;fillColor=none;verticalAlign=top;align=left;spacingLeft=30;fontColor=#232F3E;dashed=0;" parent="1" vertex="1">
          <mxGeometry x="140" y="30" width="1140" height="770" as="geometry" />
        </mxCell>
        <mxCell id="KjsGoKqbYrHmFHCyqF9O-4" value="Region São Paulo" style="points=[[0,0],[0.25,0],[0.5,0],[0.75,0],[1,0],[1,0.25],[1,0.5],[1,0.75],[1,1],[0.75,1],[0.5,1],[0.25,1],[0,1],[0,0.75],[0,0.5],[0,0.25]];outlineConnect=0;gradientColor=none;html=1;whiteSpace=wrap;fontSize=12;fontStyle=0;container=1;pointerEvents=0;collapsible=0;recursiveResize=0;shape=mxgraph.aws4.group;grIcon=mxgraph.aws4.group_region;strokeColor=#147EBA;fillColor=none;verticalAlign=top;align=left;spacingLeft=30;fontColor=#147EBA;dashed=1;" parent="KjsGoKqbYrHmFHCyqF9O-3" vertex="1">
          <mxGeometry x="220" y="20" width="780" height="730" as="geometry" />
        </mxCell>
        <mxCell id="KjsGoKqbYrHmFHCyqF9O-5" value="VPC 10.100.0.0/16" style="points=[[0,0],[0.25,0],[0.5,0],[0.75,0],[1,0],[1,0.25],[1,0.5],[1,0.75],[1,1],[0.75,1],[0.5,1],[0.25,1],[0,1],[0,0.75],[0,0.5],[0,0.25]];outlineConnect=0;gradientColor=none;html=1;whiteSpace=wrap;fontSize=12;fontStyle=0;container=1;pointerEvents=0;collapsible=0;recursiveResize=0;shape=mxgraph.aws4.group;grIcon=mxgraph.aws4.group_vpc;strokeColor=#248814;fillColor=none;verticalAlign=top;align=left;spacingLeft=30;fontColor=#AAB7B8;dashed=0;" parent="KjsGoKqbYrHmFHCyqF9O-4" vertex="1">
          <mxGeometry x="170" y="20" width="590" height="690" as="geometry" />
        </mxCell>
        <mxCell id="KjsGoKqbYrHmFHCyqF9O-6" value="Availability Zone 1a" style="fillColor=none;strokeColor=#147EBA;dashed=1;verticalAlign=top;fontStyle=0;fontColor=#147EBA;whiteSpace=wrap;html=1;" parent="KjsGoKqbYrHmFHCyqF9O-5" vertex="1">
          <mxGeometry x="30" y="50" width="540" height="240" as="geometry" />
        </mxCell>
        <mxCell id="KjsGoKqbYrHmFHCyqF9O-7" value="Availability Zone 1b" style="fillColor=none;strokeColor=#147EBA;dashed=1;verticalAlign=top;fontStyle=0;fontColor=#147EBA;whiteSpace=wrap;html=1;" parent="KjsGoKqbYrHmFHCyqF9O-5" vertex="1">
          <mxGeometry x="30" y="410" width="540" height="240" as="geometry" />
        </mxCell>
        <mxCell id="KjsGoKqbYrHmFHCyqF9O-8" value="" style="rounded=1;arcSize=10;dashed=1;strokeColor=#F59D56;fillColor=none;gradientColor=none;dashPattern=8 4;strokeWidth=2;" parent="KjsGoKqbYrHmFHCyqF9O-5" vertex="1">
          <mxGeometry x="190" y="20" width="370" height="630" as="geometry" />
        </mxCell>
        <mxCell id="KjsGoKqbYrHmFHCyqF9O-9" value="Private subnet" style="points=[[0,0],[0.25,0],[0.5,0],[0.75,0],[1,0],[1,0.25],[1,0.5],[1,0.75],[1,1],[0.75,1],[0.5,1],[0.25,1],[0,1],[0,0.75],[0,0.5],[0,0.25]];outlineConnect=0;gradientColor=none;html=1;whiteSpace=wrap;fontSize=12;fontStyle=0;container=1;pointerEvents=0;collapsible=0;recursiveResize=0;shape=mxgraph.aws4.group;grIcon=mxgraph.aws4.group_security_group;grStroke=0;strokeColor=#147EBA;fillColor=#E6F2F8;verticalAlign=top;align=left;spacingLeft=30;fontColor=#147EBA;dashed=0;" parent="KjsGoKqbYrHmFHCyqF9O-5" vertex="1">
          <mxGeometry x="210" y="90" width="330" height="190" as="geometry" />
        </mxCell>
        <mxCell id="KjsGoKqbYrHmFHCyqF9O-48" value="" style="sketch=0;points=[[0,0,0],[0.25,0,0],[0.5,0,0],[0.75,0,0],[1,0,0],[0,1,0],[0.25,1,0],[0.5,1,0],[0.75,1,0],[1,1,0],[0,0.25,0],[0,0.5,0],[0,0.75,0],[1,0.25,0],[1,0.5,0],[1,0.75,0]];outlineConnect=0;fontColor=#232F3E;gradientColor=#F78E04;gradientDirection=north;fillColor=#D05C17;strokeColor=#ffffff;dashed=0;verticalLabelPosition=bottom;verticalAlign=top;align=center;html=1;fontSize=12;fontStyle=0;aspect=fixed;shape=mxgraph.aws4.resourceIcon;resIcon=mxgraph.aws4.fargate;" parent="KjsGoKqbYrHmFHCyqF9O-9" vertex="1">
          <mxGeometry x="220" y="70" width="78" height="78" as="geometry" />
        </mxCell>
        <mxCell id="KjsGoKqbYrHmFHCyqF9O-51" value="" style="sketch=0;points=[[0,0,0],[0.25,0,0],[0.5,0,0],[0.75,0,0],[1,0,0],[0,1,0],[0.25,1,0],[0.5,1,0],[0.75,1,0],[1,1,0],[0,0.25,0],[0,0.5,0],[0,0.75,0],[1,0.25,0],[1,0.5,0],[1,0.75,0]];outlineConnect=0;fontColor=#232F3E;gradientColor=#F78E04;gradientDirection=north;fillColor=#D05C17;strokeColor=#ffffff;dashed=0;verticalLabelPosition=bottom;verticalAlign=top;align=center;html=1;fontSize=12;fontStyle=0;aspect=fixed;shape=mxgraph.aws4.resourceIcon;resIcon=mxgraph.aws4.fargate;" parent="KjsGoKqbYrHmFHCyqF9O-9" vertex="1">
          <mxGeometry x="42" y="70" width="78" height="78" as="geometry" />
        </mxCell>
        <mxCell id="KjsGoKqbYrHmFHCyqF9O-11" value="Private subnet" style="points=[[0,0],[0.25,0],[0.5,0],[0.75,0],[1,0],[1,0.25],[1,0.5],[1,0.75],[1,1],[0.75,1],[0.5,1],[0.25,1],[0,1],[0,0.75],[0,0.5],[0,0.25]];outlineConnect=0;gradientColor=none;html=1;whiteSpace=wrap;fontSize=12;fontStyle=0;container=1;pointerEvents=0;collapsible=0;recursiveResize=0;shape=mxgraph.aws4.group;grIcon=mxgraph.aws4.group_security_group;grStroke=0;strokeColor=#147EBA;fillColor=#E6F2F8;verticalAlign=top;align=left;spacingLeft=30;fontColor=#147EBA;dashed=0;" parent="KjsGoKqbYrHmFHCyqF9O-5" vertex="1">
          <mxGeometry x="210" y="450" width="330" height="190" as="geometry" />
        </mxCell>
        <mxCell id="KjsGoKqbYrHmFHCyqF9O-16" style="edgeStyle=orthogonalEdgeStyle;rounded=0;orthogonalLoop=1;jettySize=auto;html=1;flowAnimation=1;" parent="KjsGoKqbYrHmFHCyqF9O-11" edge="1">
          <mxGeometry relative="1" as="geometry">
            <mxPoint x="120" y="116" as="sourcePoint" />
            <mxPoint x="450" y="-80" as="targetPoint" />
            <Array as="points">
              <mxPoint x="160" y="116" />
              <mxPoint x="160" y="170" />
              <mxPoint x="390" y="170" />
              <mxPoint x="390" y="-80" />
            </Array>
          </mxGeometry>
        </mxCell>
        <mxCell id="KjsGoKqbYrHmFHCyqF9O-49" value="" style="sketch=0;points=[[0,0,0],[0.25,0,0],[0.5,0,0],[0.75,0,0],[1,0,0],[0,1,0],[0.25,1,0],[0.5,1,0],[0.75,1,0],[1,1,0],[0,0.25,0],[0,0.5,0],[0,0.75,0],[1,0.25,0],[1,0.5,0],[1,0.75,0]];outlineConnect=0;fontColor=#232F3E;gradientColor=#F78E04;gradientDirection=north;fillColor=#D05C17;strokeColor=#ffffff;dashed=0;verticalLabelPosition=bottom;verticalAlign=top;align=center;html=1;fontSize=12;fontStyle=0;aspect=fixed;shape=mxgraph.aws4.resourceIcon;resIcon=mxgraph.aws4.fargate;" parent="KjsGoKqbYrHmFHCyqF9O-11" vertex="1">
          <mxGeometry x="42" y="70" width="78" height="78" as="geometry" />
        </mxCell>
        <mxCell id="KjsGoKqbYrHmFHCyqF9O-54" value="ECS Fargate" style="text;html=1;strokeColor=none;fillColor=none;align=center;verticalAlign=middle;whiteSpace=wrap;rounded=0;" parent="KjsGoKqbYrHmFHCyqF9O-11" vertex="1">
          <mxGeometry x="31" y="148" width="100" height="30" as="geometry" />
        </mxCell>
        <mxCell id="KjsGoKqbYrHmFHCyqF9O-17" value="Public subnet" style="points=[[0,0],[0.25,0],[0.5,0],[0.75,0],[1,0],[1,0.25],[1,0.5],[1,0.75],[1,1],[0.75,1],[0.5,1],[0.25,1],[0,1],[0,0.75],[0,0.5],[0,0.25]];outlineConnect=0;gradientColor=none;html=1;whiteSpace=wrap;fontSize=12;fontStyle=0;container=1;pointerEvents=0;collapsible=0;recursiveResize=0;shape=mxgraph.aws4.group;grIcon=mxgraph.aws4.group_security_group;grStroke=0;strokeColor=#248814;fillColor=#E9F3E6;verticalAlign=top;align=left;spacingLeft=30;fontColor=#248814;dashed=0;" parent="KjsGoKqbYrHmFHCyqF9O-5" vertex="1">
          <mxGeometry x="40" y="255" width="130" height="180" as="geometry" />
        </mxCell>
        <mxCell id="KjsGoKqbYrHmFHCyqF9O-28" value="" style="sketch=0;outlineConnect=0;fontColor=#232F3E;gradientColor=none;fillColor=#4D27AA;strokeColor=none;dashed=0;verticalLabelPosition=bottom;verticalAlign=top;align=center;html=1;fontSize=12;fontStyle=0;aspect=fixed;pointerEvents=1;shape=mxgraph.aws4.application_load_balancer;" parent="KjsGoKqbYrHmFHCyqF9O-17" vertex="1">
          <mxGeometry x="26" y="51" width="78" height="78" as="geometry" />
        </mxCell>
        <mxCell id="KjsGoKqbYrHmFHCyqF9O-22" value="Ec2 Auto Scaling" style="text;html=1;strokeColor=none;fillColor=none;align=center;verticalAlign=middle;whiteSpace=wrap;rounded=0;" parent="KjsGoKqbYrHmFHCyqF9O-5" vertex="1">
          <mxGeometry x="330" y="20" width="100" height="30" as="geometry" />
        </mxCell>
        <mxCell id="KjsGoKqbYrHmFHCyqF9O-29" value="ECS Fargate" style="text;html=1;strokeColor=none;fillColor=none;align=center;verticalAlign=middle;whiteSpace=wrap;rounded=0;" parent="KjsGoKqbYrHmFHCyqF9O-5" vertex="1">
          <mxGeometry x="241" y="130" width="100" height="30" as="geometry" />
        </mxCell>
        <mxCell id="KjsGoKqbYrHmFHCyqF9O-32" value="Application&lt;br&gt;Load Balancer" style="text;html=1;strokeColor=none;fillColor=none;align=center;verticalAlign=middle;whiteSpace=wrap;rounded=0;" parent="KjsGoKqbYrHmFHCyqF9O-5" vertex="1">
          <mxGeometry x="55" y="390" width="100" height="30" as="geometry" />
        </mxCell>
        <mxCell id="KjsGoKqbYrHmFHCyqF9O-24" style="edgeStyle=orthogonalEdgeStyle;rounded=0;orthogonalLoop=1;jettySize=auto;html=1;entryX=0.5;entryY=1;entryDx=0;entryDy=0;entryPerimeter=0;flowAnimation=1;" parent="KjsGoKqbYrHmFHCyqF9O-5" source="KjsGoKqbYrHmFHCyqF9O-28" edge="1">
          <mxGeometry relative="1" as="geometry">
            <Array as="points">
              <mxPoint x="291" y="330" />
            </Array>
            <mxPoint x="291" y="238" as="targetPoint" />
          </mxGeometry>
        </mxCell>
        <mxCell id="KjsGoKqbYrHmFHCyqF9O-25" style="edgeStyle=orthogonalEdgeStyle;rounded=0;orthogonalLoop=1;jettySize=auto;html=1;flowAnimation=1;" parent="KjsGoKqbYrHmFHCyqF9O-5" source="KjsGoKqbYrHmFHCyqF9O-28" edge="1">
          <mxGeometry relative="1" as="geometry">
            <Array as="points">
              <mxPoint x="291" y="360" />
            </Array>
            <mxPoint x="291" y="520" as="targetPoint" />
          </mxGeometry>
        </mxCell>
        <mxCell id="KjsGoKqbYrHmFHCyqF9O-26" style="edgeStyle=orthogonalEdgeStyle;rounded=0;orthogonalLoop=1;jettySize=auto;html=1;flowAnimation=1;" parent="KjsGoKqbYrHmFHCyqF9O-5" source="KjsGoKqbYrHmFHCyqF9O-28" edge="1">
          <mxGeometry relative="1" as="geometry">
            <mxPoint x="469" y="520" as="targetPoint" />
          </mxGeometry>
        </mxCell>
        <mxCell id="KjsGoKqbYrHmFHCyqF9O-27" style="edgeStyle=orthogonalEdgeStyle;rounded=0;orthogonalLoop=1;jettySize=auto;html=1;entryX=0.631;entryY=1.004;entryDx=0;entryDy=0;entryPerimeter=0;flowAnimation=1;" parent="KjsGoKqbYrHmFHCyqF9O-5" source="KjsGoKqbYrHmFHCyqF9O-28" edge="1">
          <mxGeometry relative="1" as="geometry">
            <Array as="points">
              <mxPoint x="469" y="340" />
            </Array>
            <mxPoint x="469.21799999999985" y="238.3119999999999" as="targetPoint" />
          </mxGeometry>
        </mxCell>
        <mxCell id="KjsGoKqbYrHmFHCyqF9O-52" value="ECS Fargate" style="text;html=1;strokeColor=none;fillColor=none;align=center;verticalAlign=middle;whiteSpace=wrap;rounded=0;" parent="KjsGoKqbYrHmFHCyqF9O-5" vertex="1">
          <mxGeometry x="420" y="130" width="100" height="30" as="geometry" />
        </mxCell>
        <mxCell id="KjsGoKqbYrHmFHCyqF9O-50" value="" style="sketch=0;points=[[0,0,0],[0.25,0,0],[0.5,0,0],[0.75,0,0],[1,0,0],[0,1,0],[0.25,1,0],[0.5,1,0],[0.75,1,0],[1,1,0],[0,0.25,0],[0,0.5,0],[0,0.75,0],[1,0.25,0],[1,0.5,0],[1,0.75,0]];outlineConnect=0;fontColor=#232F3E;gradientColor=#F78E04;gradientDirection=north;fillColor=#D05C17;strokeColor=#ffffff;dashed=0;verticalLabelPosition=bottom;verticalAlign=top;align=center;html=1;fontSize=12;fontStyle=0;aspect=fixed;shape=mxgraph.aws4.resourceIcon;resIcon=mxgraph.aws4.fargate;" parent="KjsGoKqbYrHmFHCyqF9O-5" vertex="1">
          <mxGeometry x="430" y="520" width="78" height="78" as="geometry" />
        </mxCell>
        <mxCell id="KjsGoKqbYrHmFHCyqF9O-53" value="ECS Fargate" style="text;html=1;strokeColor=none;fillColor=none;align=center;verticalAlign=middle;whiteSpace=wrap;rounded=0;" parent="KjsGoKqbYrHmFHCyqF9O-5" vertex="1">
          <mxGeometry x="420" y="598" width="100" height="30" as="geometry" />
        </mxCell>
        <mxCell id="KjsGoKqbYrHmFHCyqF9O-35" value="" style="sketch=0;points=[[0,0,0],[0.25,0,0],[0.5,0,0],[0.75,0,0],[1,0,0],[0,1,0],[0.25,1,0],[0.5,1,0],[0.75,1,0],[1,1,0],[0,0.25,0],[0,0.5,0],[0,0.75,0],[1,0.25,0],[1,0.5,0],[1,0.75,0]];outlineConnect=0;fontColor=#232F3E;gradientColor=#4D72F3;gradientDirection=north;fillColor=#3334B9;strokeColor=#ffffff;dashed=0;verticalLabelPosition=bottom;verticalAlign=top;align=center;html=1;fontSize=12;fontStyle=0;aspect=fixed;shape=mxgraph.aws4.resourceIcon;resIcon=mxgraph.aws4.dynamodb;" parent="KjsGoKqbYrHmFHCyqF9O-3" vertex="1">
          <mxGeometry x="1050" y="346" width="78" height="78" as="geometry" />
        </mxCell>
        <mxCell id="KjsGoKqbYrHmFHCyqF9O-47" style="edgeStyle=orthogonalEdgeStyle;rounded=0;orthogonalLoop=1;jettySize=auto;html=1;flowAnimation=1;" parent="KjsGoKqbYrHmFHCyqF9O-3" source="KjsGoKqbYrHmFHCyqF9O-38" target="KjsGoKqbYrHmFHCyqF9O-17" edge="1">
          <mxGeometry relative="1" as="geometry" />
        </mxCell>
        <mxCell id="KjsGoKqbYrHmFHCyqF9O-38" value="" style="sketch=0;points=[[0,0,0],[0.25,0,0],[0.5,0,0],[0.75,0,0],[1,0,0],[0,1,0],[0.25,1,0],[0.5,1,0],[0.75,1,0],[1,1,0],[0,0.25,0],[0,0.5,0],[0,0.75,0],[1,0.25,0],[1,0.5,0],[1,0.75,0]];outlineConnect=0;fontColor=#232F3E;gradientColor=#945DF2;gradientDirection=north;fillColor=#5A30B5;strokeColor=#ffffff;dashed=0;verticalLabelPosition=bottom;verticalAlign=top;align=center;html=1;fontSize=12;fontStyle=0;aspect=fixed;shape=mxgraph.aws4.resourceIcon;resIcon=mxgraph.aws4.cloudfront;" parent="KjsGoKqbYrHmFHCyqF9O-3" vertex="1">
          <mxGeometry x="70" y="346" width="78" height="78" as="geometry" />
        </mxCell>
        <mxCell id="KjsGoKqbYrHmFHCyqF9O-39" style="edgeStyle=orthogonalEdgeStyle;rounded=0;orthogonalLoop=1;jettySize=auto;html=1;flowAnimation=1;" parent="KjsGoKqbYrHmFHCyqF9O-3" source="KjsGoKqbYrHmFHCyqF9O-40" target="KjsGoKqbYrHmFHCyqF9O-38" edge="1">
          <mxGeometry relative="1" as="geometry" />
        </mxCell>
        <mxCell id="KjsGoKqbYrHmFHCyqF9O-40" value="" style="sketch=0;points=[[0,0,0],[0.25,0,0],[0.5,0,0],[0.75,0,0],[1,0,0],[0,1,0],[0.25,1,0],[0.5,1,0],[0.75,1,0],[1,1,0],[0,0.25,0],[0,0.5,0],[0,0.75,0],[1,0.25,0],[1,0.5,0],[1,0.75,0]];outlineConnect=0;fontColor=#232F3E;gradientColor=#945DF2;gradientDirection=north;fillColor=#5A30B5;strokeColor=#ffffff;dashed=0;verticalLabelPosition=bottom;verticalAlign=top;align=center;html=1;fontSize=12;fontStyle=0;aspect=fixed;shape=mxgraph.aws4.resourceIcon;resIcon=mxgraph.aws4.route_53;" parent="KjsGoKqbYrHmFHCyqF9O-3" vertex="1">
          <mxGeometry x="70" y="140" width="78" height="78" as="geometry" />
        </mxCell>
        <mxCell id="KjsGoKqbYrHmFHCyqF9O-41" value="DynamoDB" style="text;html=1;strokeColor=none;fillColor=none;align=center;verticalAlign=middle;whiteSpace=wrap;rounded=0;" parent="KjsGoKqbYrHmFHCyqF9O-3" vertex="1">
          <mxGeometry x="1039" y="424" width="100" height="30" as="geometry" />
        </mxCell>
        <mxCell id="KjsGoKqbYrHmFHCyqF9O-42" value="Route 53" style="text;html=1;strokeColor=none;fillColor=none;align=center;verticalAlign=middle;whiteSpace=wrap;rounded=0;" parent="KjsGoKqbYrHmFHCyqF9O-3" vertex="1">
          <mxGeometry x="60" y="110" width="100" height="30" as="geometry" />
        </mxCell>
        <mxCell id="KjsGoKqbYrHmFHCyqF9O-43" value="CloudFront" style="text;html=1;strokeColor=none;fillColor=none;align=center;verticalAlign=middle;whiteSpace=wrap;rounded=0;" parent="KjsGoKqbYrHmFHCyqF9O-3" vertex="1">
          <mxGeometry x="60" y="424" width="100" height="30" as="geometry" />
        </mxCell>
        <mxCell id="KjsGoKqbYrHmFHCyqF9O-44" style="edgeStyle=orthogonalEdgeStyle;rounded=0;orthogonalLoop=1;jettySize=auto;html=1;flowAnimation=1;" parent="KjsGoKqbYrHmFHCyqF9O-3" target="KjsGoKqbYrHmFHCyqF9O-35" edge="1">
          <mxGeometry relative="1" as="geometry">
            <Array as="points">
              <mxPoint x="970" y="239" />
              <mxPoint x="970" y="380" />
            </Array>
            <mxPoint x="888.0000000000005" y="239" as="sourcePoint" />
          </mxGeometry>
        </mxCell>
        <mxCell id="KjsGoKqbYrHmFHCyqF9O-45" style="edgeStyle=orthogonalEdgeStyle;rounded=0;orthogonalLoop=1;jettySize=auto;html=1;entryX=0;entryY=0.692;entryDx=0;entryDy=0;entryPerimeter=0;flowAnimation=1;" parent="KjsGoKqbYrHmFHCyqF9O-3" target="KjsGoKqbYrHmFHCyqF9O-35" edge="1">
          <mxGeometry relative="1" as="geometry">
            <Array as="points">
              <mxPoint x="970" y="599" />
              <mxPoint x="970" y="400" />
            </Array>
            <mxPoint x="898.0000000000005" y="599" as="sourcePoint" />
          </mxGeometry>
        </mxCell>
        <mxCell id="KjsGoKqbYrHmFHCyqF9O-46" style="edgeStyle=orthogonalEdgeStyle;rounded=0;orthogonalLoop=1;jettySize=auto;html=1;entryX=0;entryY=0.25;entryDx=0;entryDy=0;entryPerimeter=0;flowAnimation=1;" parent="KjsGoKqbYrHmFHCyqF9O-3" target="KjsGoKqbYrHmFHCyqF9O-35" edge="1">
          <mxGeometry relative="1" as="geometry">
            <Array as="points">
              <mxPoint x="760" y="239" />
              <mxPoint x="760" y="170" />
              <mxPoint x="990" y="170" />
              <mxPoint x="990" y="366" />
              <mxPoint x="1050" y="366" />
            </Array>
            <mxPoint x="720" y="239" as="sourcePoint" />
          </mxGeometry>
        </mxCell>
      </root>
    </mxGraphModel>
  </diagram>
</mxfile>
